<?xml version="1.0" standalone="no"?><!DOCTYPE svg PUBLIC "-//W3C//DTD SVG 1.1//EN" "http://www.w3.org/Graphics/SVG/1.1/DTD/svg11.dtd"><svg t="1691065555163" class="icon" viewBox="0 0 1024 1024" version="1.1" xmlns="http://www.w3.org/2000/svg" p-id="943" xmlns:xlink="http://www.w3.org/1999/xlink" width="500" height="500"><path d="M929.44033531 564.23658406L772.25282844 144.48181719 631.77623187 144.48181719l0 95.59534594 88.42133063 0.03453656 104.50962281 324.15942L626.73485 564.27112063l-53.18825812 95.7411675L442.99062875 660.01228812l-48.83760844-95.60302124L195.99169344 564.40926688l104.63817562-324.47696438 88.40406188 0.0335775 0-95.48406187L248.438375 144.48181719 91.02925813 564.41694125l-1e-8 314.95446094 838.59143532-0.1880325L929.44033531 564.23658406 929.44033531 564.23658406zM458.90048188 363.00533844L304.22167344 363.00533844l206.17957031 238.96342312 206.17957031-238.96342312L561.9010475 363.00533844 561.9010475 144.41274406 458.90048188 144.41274406 458.90048188 363.00533844 458.90048188 363.00533844zM458.90048188 363.00533844" fill="#ffffff" p-id="944"></path></svg>