<?xml version="1.0" standalone="no"?><!DOCTYPE svg PUBLIC "-//W3C//DTD SVG 1.1//EN" "http://www.w3.org/Graphics/SVG/1.1/DTD/svg11.dtd"><svg t="1691065567620" class="icon" viewBox="0 0 1024 1024" version="1.1" xmlns="http://www.w3.org/2000/svg" p-id="1097" xmlns:xlink="http://www.w3.org/1999/xlink" width="200" height="200"><path d="M532.69248136 504.03339457L532.69248136 345.73591208C526.8985869 344.82544291 521.35300129 335.7207512 515.26941232 335.7207512L511.79307536 335.7207512C504.67486169 335.7207512 498.09465285 345.19790728 491.30751864 346.23253123L491.30751864 504.03339457 160.22781606 504.03339457 160.22781606 377.80925845C160.22781606 354.59229422 178.76827964 335.7207512 201.61277879 335.7207512L277.47141597 335.7207512C252.43351339 323.42941703 238.81786076 306.83404657 231.82380188 290.36283163 211.58655474 242.72873948 242.21142714 185.45195082 281.27883238 155.73754759 298.53636171 142.57712989 321.0497814 139.18356279 348.03277711 145.55684698 405.26818084 159.13111469 476.98832146 217.35975747 513.53124384 262.92460169 550.07416549 217.35975747 621.7943061 159.13111469 679.02970983 145.55684698 706.01270554 139.22494771 728.52612525 142.61851483 745.78365457 155.73754759 784.85105982 185.45195082 815.47593221 242.72873948 795.23868507 290.36283163 788.24462692 306.87543222 774.50481878 323.42941703 749.38414633 335.7207512L822.38722121 335.7207512C845.23172036 335.7207512 863.77218394 354.59229422 863.77218394 377.80925845L863.77218394 504.03339457 532.69248136 504.03339457ZM338.67977582 186.5279597C332.96865122 185.20364124 327.83691563 184.50009672 323.2017999 184.50009672 316.12497119 184.50009672 310.37246092 186.15549535 306.06842537 189.42490766 279.91312825 209.33107465 258.59987295 247.23970041 269.81519752 273.68469202 276.10571186 288.45912342 310.45523152 333.27903819 491.76275285 303.73017469 469.66318318 268.38741673 394.25978093 199.72976306 338.67977582 186.5279597ZM757.24728943 273.68469202C768.46261472 247.23970041 747.19074363 209.33107465 720.9940623 189.42490766 713.95861851 184.08624742 702.90883366 183.13439333 688.42409678 186.5279597 632.51301151 199.77114798 556.69575999 269.00819066 535.01003959 304.22679457 716.35894659 333.81704299 750.91539016 288.54189328 757.24728943 273.68469202ZM491.30751864 882.70580437L242.99774152 882.70580437C220.15324237 882.70580437 201.61277879 863.87564627 201.61277879 840.65868203L201.61277879 546.12190183 491.30751864 546.12190183 491.30751864 882.70580437ZM822.38722121 840.65868203C822.38722121 863.87564627 803.84675763 882.70580437 781.00225848 882.70580437L532.69248136 882.70580437 532.69248136 546.12190183 822.38722121 546.12190183 822.38722121 840.65868203Z" fill="#ffffff" p-id="1098"></path></svg>