<?xml version="1.0" standalone="no"?><!DOCTYPE svg PUBLIC "-//W3C//DTD SVG 1.1//EN" "http://www.w3.org/Graphics/SVG/1.1/DTD/svg11.dtd"><svg t="1691065575074" class="icon" viewBox="0 0 1033 1024" version="1.1" xmlns="http://www.w3.org/2000/svg" p-id="1406" xmlns:xlink="http://www.w3.org/1999/xlink" width="201.7578125" height="200"><path d="M876.05827339 713.63533649a125.00196598 125.00196598 0 0 0-11.14667239-27.07048895l27.46858536-27.46858536-48.16954768-48.16954691-27.46858458 27.46858458a121.41910706 121.41910706 0 0 0-27.07048974-11.1466724v-39.80954301H721.59724556v39.80954301a114.25338922 114.25338922 0 0 0-27.07048975 11.1466724l-27.46858456-27.46858458-48.16954769 48.16954691 27.46858536 27.46858534A125.00196598 125.00196598 0 0 0 634.01625047 713.63533649h-39.80954377v68.07431958h39.80954379l4.77714496 13.53524448a89.17337676 89.17337676 0 0 0 5.17524058 10.74857678l-27.46858457 27.46858458 48.16954691 48.56764251 27.46858535-27.46858458 11.1466716 5.17524059a103.50481244 103.50481244 0 0 0 14.33143571 5.17524057v39.8095438h68.07431879v-39.8095438a103.50481244 103.50481244 0 0 0 14.33143571-5.17524057l11.14667239-5.17524059 27.46858458 27.46858458 48.16954767-48.56764251-27.46858535-27.46858458a89.17337676 89.17337676 0 0 0 5.17524058-10.74857678 136.14863837 136.14863837 0 0 0 5.17524136-13.53524448h39.80954301V713.63533649h-39.80954301z m-39.80954301 37.02287531a24.68191687 24.68191687 0 0 1 0 5.17524059 6.76762224 6.76762224 0 0 1 0 2.78666847 19.9047719 19.9047719 0 0 1 0 4.777145 7.56381345 7.56381345 0 0 1 0 3.1847633 79.61908678 79.61908678 0 0 1-56.92764719 58.52002883 74.84194103 74.84194103 0 0 1-21.09905793 2.78666773 74.0457506 74.0457506 0 0 1-20.70096234-2.78666773 79.61908678 79.61908678 0 0 1-56.92764718-58.52002883 7.56381345 7.56381345 0 0 1 0-3.18476334 19.9047719 19.9047719 0 0 1 0-4.77714496 6.76762224 6.76762224 0 0 1 0-2.78666847 24.68191687 24.68191687 0 0 1 0-5.17524059v-8.36000391-6.36952663a37.42097091 37.42097091 0 0 1 0-6.36952741s0-3.98095453 1.99047725-5.97143103a79.61908678 79.61908678 0 0 1 148.48959604 0v12.34095844a35.03239802 35.03239802 0 0 1-1e-8 6.36952663v8.36000391zM380.82755517 199.29603761h186.30866256a39.80954301 39.80954301 0 0 0 36.22668409-39.80954301 39.80954301 39.80954301 0 0 0-37.0228753-39.80954378H380.82755517A39.80954301 39.80954301 0 0 0 343.40658426 156.30173051a39.80954301 39.80954301 0 0 0 37.42097092 42.9943071z" fill="#ffffff" p-id="1407"></path><path d="M556.38764095 744.68678077a193.47438041 193.47438041 0 0 1 199.04771656-187.50294938 210.59248381 210.59248381 0 0 1 76.43432274 14.33143571V256.2236848a85.59051782 85.59051782 0 0 0-93.15433128-95.14480857h-84.39623176a74.0457506 74.0457506 0 0 1 0 13.53524451 66.08384153 66.08384153 0 0 1-53.74288311 69.26860563H342.21229822a66.08384153 66.08384153 0 0 1-56.92764719-69.26860563v-13.53524451h-83.60004057C133.2121953 161.07887626 116.4921875 199.69413321 116.4921875 256.2236848v557.33360521c0 60.51050612 24.28382126 93.95052249 90.36766357 93.95052249h445.86688447l-3.18476331-3.98095453a185.1143765 185.1143765 0 0 1-93.15433128-158.8400772z" fill="#ffffff" p-id="1408"></path><path d="M212.03509165 603.36290182a23.48763083 23.48763083 0 0 1 23.88572566-23.0895352h159.2381728a23.88572566 23.88572566 0 0 1 24.28382203 23.0895352v4.37905013a23.48763083 23.48763083 0 0 1-24.28382203 23.08953445H235.92081731a23.48763083 23.48763083 0 0 1-23.88572566-23.08953445z m0-133.36196991A23.48763083 23.48763083 0 0 1 235.92081731 446.91139671h231.29344614a23.48763083 23.48763083 0 0 1 24.28382202 23.0895352V474.7780769a24.28382126 24.28382126 0 0 1-24.28382202 23.48763081H235.92081731A24.28382126 24.28382126 0 0 1 212.03509165 474.7780769z m326.8363503-127.39053885a26.27429853 26.27429853 0 0 1-26.67239414 25.47810808h-278.66680337a25.87620293 25.87620293 0 0 1-26.27429854-25.47810808 25.87620293 25.87620293 0 0 1 26.27429854-27.07048899h278.66680337a25.87620293 25.87620293 0 0 1 26.67239413 27.07048899z" fill="#ffffff" p-id="1409"></path></svg>