<?xml version="1.0" standalone="no"?><!DOCTYPE svg PUBLIC "-//W3C//DTD SVG 1.1//EN" "http://www.w3.org/Graphics/SVG/1.1/DTD/svg11.dtd"><svg t="1691065571267" class="icon" viewBox="0 0 1024 1024" version="1.1" xmlns="http://www.w3.org/2000/svg" p-id="1251" xmlns:xlink="http://www.w3.org/1999/xlink" width="400" height="400"><path d="M905.65527553 707.82271576c-1.00421906-12.59136201-3.32164765-13.7500763-15.7585144-12.74585724-13.7500763 1.08146667-25.41446686-5.79357148-30.20381928-17.76695251-4.86660004-12.28237152-1.31320954-24.95098115 9.42420959-33.75720979 7.26127625-5.94806672 8.11100006-10.73741914 1.5449524-17.68970489-9.88769531-10.42842865-20.16162873-20.54786682-30.89904785-30.04932404-8.34274292-7.41577148-12.2051239-6.41155243-19.31190491 2.47192383-8.6517334 10.81466675-22.40180969 14.05906677-34.91592407 8.26549531-11.74163818-5.484581-17.22621918-15.52677155-16.37649536-29.74033357 0.61798096-9.73320007-2.24018097-13.20934297-11.97338104-13.90457153-7.57026672-0.61798096-15.21778107-1.00421906-22.32456208-1.46770477-7.49301911 0.84972382-14.52255249 1.46770478-21.39759063 2.3946762-9.65595246 1.31320954-11.81888581 4.09412384-10.96916198 14.05906678 1.31320954 15.06328583-5.02109528 26.34143829-17.45796205 31.51702881-12.12787628 5.02109528-24.64199066 1.39045716-34.2206955-9.81044769-5.63907623-6.64329529-10.58292389-7.64751435-16.76273344-1.69944764-10.50567627 9.81044769-20.77960969 20.00713349-30.2810669 30.74455262-8.18824768 9.19246674-7.26127625 12.28237152 2.16293334 20.16162873 8.96072388 7.49301911 12.82310486 17.07172394 10.35118104 28.58161925-2.54917146 11.74163818-10.04219055 19.3119049-21.6293335 22.0155716-4.24861909 1.00421906-8.96072388 0.3862381-13.51833344 0.30899048-6.10256196-0.07724763-9.96494294 2.70366669-10.81466674 8.72898101-2.24018097 16.60823823-2.31742859 33.29372407 0.69522857 49.90196229 1.1587143 6.56604767 4.7121048 9.11521912 11.27815247 8.65173339 3.47614289-0.23174287 7.02953339-1.00421906 10.42842865-0.69522857 12.2051239 1.23596192 21.78382873 9.34696198 25.10547638 20.70236206 3.32164765 11.35540009-0.61798096 22.94254303-10.42842865 30.82180024-8.03375244 6.48880005-8.96072388 10.96916198-1.93119049 18.46218109 9.73320007 10.35118103 19.77539063 20.39337158 30.43556213 29.74033355 9.0379715 7.95650482 12.51411438 7.02953339 20.0843811-2.62641906 10.35118103-13.28659057 28.96785737-15.06328583 41.63646698-4.17137146 8.49723816 7.33852387 10.81466675 16.5309906 9.65595246 27.26840973-0.84972382 7.95650482 2.08568573 12.51411438 9.03797149 12.59136199 15.60401917 0.30899048 31.28528595 0.3862381 46.8120575-0.54073334 10.11943818-0.61798096 12.12787628-4.24861909 10.96916198-14.44530486-1.69944763-14.83154297 4.55760956-26.41868591 16.99447633-31.74877168 12.59136201-5.33008576 25.25997162-1.69944763 34.60693359 9.8104477 5.71632385 7.02953339 10.73741914 8.11100006 17.14897156 1.93119049 10.73741914-10.19668579 21.08860016-20.77960969 30.89904785-31.82601929 7.10678101-8.03375244 6.10256196-12.35961914-2.47192383-18.84841919-7.18402863-5.40733338-11.20090485-12.59136201-11.74163818-21.55208588-1.08146667-18.23043823 13.82732392-32.13500977 32.289505-30.28106689 9.42420959 0.92697143 14.05906677-1.77669526 14.29080964-9.96494293 0.46348572-14.67704773 0.61798096-29.27684784-0.46348573-43.79940034zM737.95069332 803.91875458c-40.55500031-0.46348572-73.15349579-33.4482193-72.61276245-73.61698151 0.54073334-39.62802888 33.21647644-72.22652436 72.38101959-72.07202912 40.40050507 0.15449524 73.77147675 33.37097168 73.30799103 73.15349579-0.3862381 40.24600983-33.37097168 72.92175293-73.07624817 72.53551484z m0 0" fill="#ffffff" p-id="1252"></path><path d="M601.37690181 570.32195282l-45.18985748-13.90457154-47.2755432-23.6377716v-53.60984802s35.68840027-22.78804779 40.40050505-56.46800995c1.77669526-0.07724763 3.63063813-0.23174287 5.87081909-0.54073334 25.72345734-3.08990479 44.41738129-66.35570527 44.4173813-66.35570526s1.23596192-29.58583832-14.36805726-29.58583832c-1.77669526 0-19.15740967 0.23174287-20.62511444 0.77247619l3.93962861-52.45113372 0.46348572-40.01426697s0.30899048-108.9963913-133.02040101-110.23235321C297.56201382 125.45291138 323.51721402 184.08385467 323.51721402 184.08385467c0 0.15449524 0.07724763 0.23174287 0.0772476 0.38623811-17.22621918 9.88769531-25.9552002 25.10547638-25.95520019 56.15901947 0 67.51441956 8.49723816 91.77017212 8.49723816 91.77017212l-19.46640014-6.17980957s-22.32456208 2.24018097-20.39337158 28.27262878c1.9311905 26.10969544 23.86951447 64.5017624 49.5929718 67.59166717 1.9311905 0.23174287 3.63063813 0.3862381 5.17559052 0.46348572 0.07724763 41.09573364 36.07463837 57.54947662 36.07463836 57.54947663l0.30899047 51.2151718-48.20251464 24.87373353-142.4446106 45.11260986S116.18460293 616.51602936 116.4935934 680.32256318l1.00421906 78.40633391h411.88430786c-1.23596192-9.34696198-2.85816193-18.69392395-2.85816192-28.42712402 0-64.34726716 29.43134308-121.27876282 74.85294341-159.97982026z" fill="#ffffff" p-id="1253"></path></svg>